<?xml version="1.0" standalone="no"?>
<!DOCTYPE svg PUBLIC "-//W3C//DTD SVG 20010904//EN"
 "http://www.w3.org/TR/2001/REC-SVG-20010904/DTD/svg10.dtd">
<svg version="1.0" xmlns="http://www.w3.org/2000/svg"
 width="1092.000000pt" height="832.000000pt" viewBox="0 0 1092.000000 832.000000"
 preserveAspectRatio="xMidYMid meet">
<metadata>
Created by potrace 1.16, written by Peter Selinger 2001-2019
</metadata>
<g transform="translate(0.000000,832.000000) scale(0.100000,-0.100000)"
fill="#000000" stroke="none">
<path d="M2515 6510 c-580 -17 -926 -57 -990 -116 l-25 -23 0 -256 c0 -157 4
-264 10 -276 14 -26 54 -45 128 -60 34 -7 62 -18 62 -24 0 -7 -19 -17 -42 -24
-144 -43 -284 -160 -356 -298 -76 -146 -72 -63 -72 -1449 0 -1208 1 -1243 20
-1319 54 -211 220 -376 445 -442 56 -17 142 -18 1270 -18 963 1 1220 3 1260
14 224 58 404 237 460 456 12 49 15 141 15 522 l0 463 80 78 c44 42 80 73 80
67 0 -30 42 -542 55 -670 9 -82 18 -217 22 -300 7 -170 15 -198 67 -215 28 -9
40 -8 65 5 41 21 47 36 55 140 17 238 118 532 225 655 l39 45 16 -55 c9 -30
36 -143 61 -250 68 -293 93 -356 171 -440 104 -111 276 -150 394 -90 102 52
180 172 201 310 16 105 6 165 -36 207 -45 45 -94 46 -137 3 -27 -27 -29 -35
-23 -68 4 -20 8 -68 8 -107 1 -60 -3 -76 -26 -112 -36 -57 -68 -77 -123 -74
-53 1 -89 18 -125 58 -43 45 -66 101 -99 244 -106 446 -136 534 -194 570 -43
27 -105 20 -159 -18 -62 -43 -150 -153 -200 -250 l-44 -85 -6 59 c-3 32 -16
193 -28 358 l-22 301 34 54 c132 207 279 553 344 808 32 128 55 309 55 435 0
124 -20 174 -88 222 -38 26 -52 30 -110 29 -118 -1 -192 -63 -272 -228 -109
-224 -143 -480 -139 -1043 l2 -232 -51 -63 c-27 -35 -59 -72 -71 -82 l-21 -19
0 659 c0 723 0 726 -61 847 -82 166 -236 290 -407 329 l-55 12 84 18 c89 18
144 42 153 64 8 20 8 532 1 544 -25 40 -195 78 -435 99 -350 30 -1007 44
-1465 31z m955 -110 c336 -12 740 -44 727 -56 -2 -2 -62 -10 -133 -19 -284
-32 -501 -40 -1104 -40 -603 0 -820 8 -1104 40 -71 9 -131 17 -133 19 -5 4
164 23 337 37 336 26 964 35 1410 19z m-1802 -156 c22 -6 22 -8 22 -185 0
-170 -1 -179 -19 -179 -51 0 -51 0 -51 191 0 189 -1 186 48 173z m2638 -170
c-1 -173 -1 -177 -23 -185 l-23 -8 0 178 c0 98 3 181 7 184 3 4 14 7 24 7 15
0 17 -15 15 -176z m-88 -200 c-2 -1 -24 -5 -50 -9 l-48 -7 0 181 c0 201 -6
185 70 193 l25 3 3 -179 c1 -98 1 -180 0 -182z m-2419 350 l31 -6 0 -179 0
-179 -34 0 c-68 0 -66 -6 -66 191 0 199 -5 187 69 173z m189 -201 c3 -206 11
-189 -82 -177 l-46 7 0 177 c0 97 2 179 4 181 3 2 31 2 63 -1 l58 -5 3 -182z
m2092 12 l0 -185 -37 0 c-21 0 -48 -3 -60 -6 l-23 -6 0 185 0 186 48 4 c26 2
53 4 60 5 9 2 12 -41 12 -183z m-1940 -20 l0 -185 -44 0 c-80 0 -76 -9 -76
191 l0 179 60 0 60 0 0 -185z m1790 6 l0 -178 -46 -7 c-92 -12 -84 -29 -84
179 l0 185 65 0 65 0 0 -179z m-1640 -16 l0 -185 -39 0 c-74 0 -71 -8 -71 191
l0 179 55 0 55 0 0 -185z m1471 103 c1 -118 -2 -272 -5 -275 -1 -1 -28 -5 -59
-9 l-57 -7 0 180 c0 99 3 183 7 186 3 4 30 7 60 7 l53 0 1 -82z m-1301 -114
l0 -186 -22 6 c-13 3 -44 6 -70 6 l-48 0 0 180 0 180 70 0 70 0 0 -186z m168
-2 l2 -183 -67 3 -68 3 -3 183 -2 183 67 -3 68 -3 3 -183z m642 3 l0 -185 -60
0 -60 0 0 180 0 179 58 4 c31 2 58 4 60 5 1 1 2 -81 2 -183z m168 3 l-3 -183
-62 -3 -63 -3 0 186 0 185 65 0 65 0 -2 -182z m172 3 l0 -179 -66 -4 c-36 -1
-68 -1 -70 1 -2 2 -4 85 -4 183 l0 178 70 0 70 0 0 -179z m-820 -11 l0 -180
-65 0 -65 0 0 180 0 180 65 0 65 0 0 -180z m160 0 l0 -180 -65 0 -65 0 0 180
0 180 65 0 65 0 0 -180z m170 0 l0 -180 -65 0 -65 0 0 180 0 180 65 0 65 0 0
-180z m-1100 -260 c249 -19 832 -32 1200 -25 334 6 493 12 762 31 l97 7 3 -39
c3 -42 -1 -40 120 -64 184 -37 343 -197 384 -389 11 -53 14 -203 14 -759 l0
-692 -87 -64 c-177 -131 -316 -183 -463 -171 -83 7 -88 6 -115 -18 -22 -19
-29 -33 -29 -61 0 -56 33 -83 118 -96 150 -24 320 22 480 128 39 26 77 51 84
55 11 7 13 -69 10 -420 -3 -418 -4 -430 -26 -493 -13 -36 -35 -82 -48 -103
l-26 -39 -21 21 c-65 60 -233 96 -648 135 -37 4 -51 1 -64 -14 -13 -15 -14
-23 -5 -39 6 -12 17 -21 26 -21 37 0 318 -32 399 -46 50 -8 121 -24 160 -35
67 -20 69 -21 45 -34 -161 -83 -1031 -140 -1752 -116 -301 10 -354 10 -366 -3
-17 -17 -8 -53 16 -59 9 -3 -82 -5 -203 -6 -292 -1 -405 18 -517 90 -66 43
-148 134 -181 203 -58 118 -57 85 -57 1391 0 1321 -2 1278 62 1397 82 155 214
242 411 273 36 6 37 7 37 51 0 41 2 44 23 39 12 -2 83 -9 157 -15z m3270 -422
c0 -216 -67 -485 -194 -783 -79 -186 -75 -189 -76 43 0 247 12 363 51 507 53
193 130 325 190 325 l29 0 0 -92z m-945 -2927 c-9 -16 -116 -52 -195 -67 -48
-8 -144 -13 -270 -12 -185 1 -190 1 -90 9 151 12 426 47 490 63 70 18 72 18
65 7z"/>
<path d="M4152 5510 c-18 -7 -23 -16 -20 -37 3 -27 5 -28 78 -34 106 -8 162
-43 205 -129 19 -36 34 -179 34 -327 1 -74 3 -82 22 -88 14 -5 27 -1 38 9 14
14 16 38 14 159 -3 154 -13 229 -39 282 -25 54 -87 118 -139 144 -52 26 -155
37 -193 21z"/>
<path d="M3754 5351 c-72 -44 -98 -116 -68 -191 17 -41 17 -43 -2 -58 -86 -66
-225 -89 -432 -73 -165 14 -291 41 -517 111 -152 47 -182 53 -285 57 -196 9
-314 -29 -418 -134 -116 -117 -157 -241 -149 -443 6 -136 18 -182 70 -268 40
-67 85 -96 147 -96 128 0 194 131 126 249 -26 43 -29 58 -30 144 -1 82 2 103
22 143 36 73 76 92 187 92 77 0 112 -6 240 -43 83 -24 155 -45 161 -46 7 -2
13 -111 18 -341 4 -187 11 -384 16 -439 5 -55 9 -156 10 -225 0 -69 7 -255 16
-415 9 -168 13 -341 9 -411 -6 -132 0 -161 43 -207 70 -74 172 -78 246 -9 58
54 71 128 37 210 -38 91 -55 778 -37 1440 l9 322 179 0 c211 0 283 13 408 72
104 50 197 138 236 223 23 49 26 67 23 140 -4 74 -7 88 -34 127 -58 81 -160
112 -231 69z"/>
<path d="M1371 3676 c-10 -12 -12 -119 -9 -478 l4 -463 27 -80 c29 -89 71
-146 142 -195 47 -32 74 -37 93 -18 21 21 13 36 -45 80 -67 51 -96 91 -120
162 -15 44 -18 114 -23 526 l-5 475 -26 3 c-14 2 -31 -4 -38 -12z"/>
<path d="M6035 4901 c-73 -33 -118 -102 -135 -205 -20 -127 18 -253 94 -311
104 -80 276 -44 327 69 21 46 25 101 8 112 -15 9 -29 -14 -29 -49 0 -65 -63
-132 -133 -142 -146 -22 -249 100 -234 277 12 143 80 229 185 235 106 7 162
-43 171 -153 4 -41 11 -69 19 -72 9 -3 12 22 14 102 0 58 1 112 2 119 2 23
-28 12 -34 -13 -5 -22 -7 -23 -16 -7 -30 53 -161 74 -239 38z"/>
<path d="M6542 4899 c-90 -45 -136 -138 -135 -276 0 -72 4 -90 32 -145 37 -76
83 -112 158 -129 106 -24 195 21 248 126 28 55 30 68 29 160 -1 112 -13 150
-66 211 -65 73 -179 96 -266 53z m174 -28 c178 -81 160 -441 -25 -491 -92 -25
-177 17 -219 108 -23 49 -27 70 -26 147 0 72 4 99 23 136 51 107 147 145 247
100z"/>
<path d="M7082 4899 c-90 -45 -136 -138 -135 -274 0 -93 24 -159 76 -213 41
-43 71 -58 130 -67 100 -15 194 39 238 137 20 45 24 68 23 153 -1 112 -13 150
-66 211 -65 73 -179 96 -266 53z m174 -28 c178 -81 160 -441 -25 -491 -92 -25
-177 17 -219 108 -23 49 -27 70 -26 147 0 72 4 99 23 136 51 107 147 145 247
100z"/>
<path d="M9180 4904 c-78 -34 -131 -108 -150 -211 -21 -117 14 -230 90 -296
83 -71 200 -75 288 -10 32 24 32 24 32 3 0 -15 5 -20 18 -18 15 3 17 14 14 90
-5 107 4 126 60 130 23 2 43 9 46 16 3 9 -26 12 -122 12 -105 0 -126 -2 -126
-15 0 -11 12 -15 44 -15 57 0 71 -16 62 -77 -7 -56 -26 -87 -67 -112 -97 -59
-225 -17 -280 91 -49 97 -31 253 39 330 44 48 85 68 144 68 93 0 150 -55 158
-153 4 -47 9 -63 22 -65 15 -3 16 10 17 112 0 95 -2 116 -14 116 -10 0 -15
-10 -15 -30 l0 -29 -25 25 c-53 53 -161 70 -235 38z"/>
<path d="M7474 4899 c-6 -11 10 -17 56 -21 27 -2 36 -8 41 -28 9 -32 11 -387
3 -428 -6 -28 -10 -31 -48 -34 -28 -2 -41 -8 -41 -18 0 -11 20 -14 110 -13 61
1 113 2 117 2 4 1 5 8 2 16 -4 10 -20 15 -49 15 -49 0 -55 9 -55 101 0 55 1
57 59 112 33 32 62 57 64 57 6 0 197 -257 197 -264 0 -3 -19 -6 -42 -8 -30 -2
-43 -8 -43 -17 0 -12 21 -15 115 -14 91 0 115 3 115 14 0 9 -13 15 -38 16 -25
1 -47 9 -64 25 -36 33 -205 266 -201 277 3 8 118 116 176 165 12 11 42 22 65
25 80 11 38 26 -78 28 -96 2 -115 0 -115 -12 0 -16 7 -18 59 -15 18 1 32 -3
30 -8 -2 -5 -69 -69 -149 -141 l-145 -130 -3 113 c-3 145 3 164 60 168 24 2
42 8 41 13 -4 13 -231 17 -239 4z"/>
<path d="M8090 4894 c0 -10 12 -14 39 -14 21 0 44 -6 50 -14 8 -9 11 -82 9
-242 l-3 -229 -45 -5 c-30 -3 -45 -10 -45 -19 0 -12 22 -15 115 -15 93 0 115
3 115 15 0 9 -15 16 -45 19 l-45 5 0 240 0 240 48 3 c31 2 47 8 47 17 0 10
-26 13 -120 13 -96 0 -120 -3 -120 -14z"/>
<path d="M8370 4895 c0 -11 11 -15 38 -15 64 0 63 7 60 -251 l-3 -234 -45 -5
c-31 -3 -45 -10 -45 -20 0 -12 19 -14 113 -13 63 1 116 4 119 7 13 12 -12 26
-48 26 -23 0 -42 5 -45 13 -2 7 -3 110 -2 229 l3 216 145 -231 c161 -257 174
-274 196 -256 11 9 14 56 14 253 0 175 3 245 12 254 7 7 29 12 50 12 25 0 38
5 38 14 0 19 -231 17 -238 -1 -2 -9 8 -13 35 -13 65 0 64 6 61 -237 l-3 -222
-130 207 c-193 306 -172 282 -255 282 -56 0 -70 -3 -70 -15z"/>
<path d="M6143 4138 c3 -10 324 -13 1562 -13 1238 0 1559 3 1563 13 3 9 -314
12 -1563 12 -1249 0 -1566 -3 -1562 -12z"/>
<path d="M6267 3619 c-74 -43 -75 -249 -2 -464 88 -259 224 -450 373 -521 49
-24 70 -28 147 -29 80 0 95 3 135 27 57 33 82 60 118 126 l29 52 21 -102 c57
-271 82 -510 82 -795 0 -155 -4 -245 -15 -299 -45 -238 -141 -370 -296 -410
-216 -55 -412 64 -679 415 -206 271 -285 351 -420 431 -139 82 -314 110 -391
63 -40 -25 -89 -106 -89 -147 0 -30 39 -75 67 -77 54 -4 83 13 106 60 12 24
17 26 76 24 145 -6 293 -119 476 -363 255 -340 377 -460 541 -531 168 -73 383
-50 517 54 119 93 196 221 241 403 37 145 43 432 15 724 -16 164 -76 573 -119
810 -21 118 -41 251 -45 294 -10 128 -35 166 -108 166 -24 0 -43 -8 -62 -27
l-28 -28 9 -100 c4 -55 7 -136 7 -181 -2 -139 -60 -332 -117 -389 -32 -32 -99
-34 -155 -5 -76 38 -178 177 -234 320 -56 143 -77 270 -67 419 2 38 -1 48 -24
68 -29 25 -78 30 -109 12z"/>
<path d="M7406 3599 c-14 -17 -26 -41 -26 -53 0 -60 207 -801 262 -939 11 -29
54 -57 87 -57 11 0 33 12 50 26 36 30 38 54 16 159 -23 108 -20 297 6 381 29
95 75 178 121 220 34 30 45 35 81 32 39 -3 44 -7 74 -57 47 -78 80 -185 114
-371 18 -103 37 -174 48 -190 34 -48 100 -52 140 -9 18 19 20 39 23 233 3 190
6 216 26 267 42 105 100 175 160 193 20 7 25 2 43 -38 30 -69 47 -162 64 -351
42 -466 119 -700 242 -734 82 -23 147 37 160 149 5 45 3 51 -26 80 -26 27 -37
31 -73 28 -42 -3 -42 -3 -55 42 -24 79 -52 268 -73 486 -28 297 -68 424 -157
491 -32 25 -45 28 -107 28 -57 -1 -81 -6 -122 -27 -59 -31 -148 -123 -184
-191 -14 -26 -28 -47 -31 -47 -3 0 -13 16 -22 35 -25 52 -96 125 -142 146 -26
12 -64 19 -106 19 -132 0 -233 -79 -317 -250 l-37 -76 -45 179 c-51 204 -64
227 -129 227 -32 0 -44 -6 -65 -31z"/>
<path d="M9327 3616 c-131 -49 -227 -208 -227 -377 0 -43 -5 -60 -19 -73 -40
-36 -35 -99 9 -136 10 -8 30 -46 45 -85 76 -193 197 -300 385 -341 199 -42
375 9 517 151 95 95 123 153 123 256 0 61 -4 81 -20 101 -25 32 -66 41 -106
22 -38 -18 -54 -51 -54 -110 0 -24 -6 -59 -14 -77 -17 -42 -90 -108 -158 -144
-49 -26 -62 -28 -163 -28 -116 0 -169 15 -232 65 -24 19 -82 89 -83 100 0 3
42 5 93 6 113 1 190 27 255 87 56 52 78 97 92 183 21 129 -5 226 -81 309 -67
72 -126 98 -234 102 -60 2 -103 -1 -128 -11z m176 -180 c18 -7 45 -28 60 -45
24 -29 27 -41 27 -102 0 -91 -16 -122 -75 -144 -33 -13 -65 -16 -128 -13 -45
2 -89 8 -96 13 -10 6 -12 27 -8 87 6 92 40 173 84 200 34 21 92 23 136 4z"/>
</g>
</svg>
